# xmcd CD database file
#
# Track frame offsets:
#	150
#	33502
#	54860
#	70092
#	84240
#	117552
#	131064
#	158585
#	172028
#	184504
#	218750
#	234920
#
# Disc length: 3508 seconds
#
# Revision: 2
# Processed by: cddbd v1.5.1PL0 Copyright (c) Steve Scherf et al.
# Submitted via: CDex 1.51
#
DISCID=970db20c
DTITLE=La Grande Storia del Jazz - Bebop
DYEAR=1900
DGENRE=Jazz
TTITLE0=Charlie Parker and Dizzy Gillespie - Salt Peanuts
TTITLE1=Bud Powell Trio - Un poco Loco
TTITLE2=Charlie Parker - Love man (Oh, where can you be?)
TTITLE3=Fats Navarro - Boperation
TTITLE4=Charlie Parker and Dizzy Gillespie - A night in Tunisia
TTITLE5=Charlie Parker - Confirmation
TTITLE6=Dizzy Gillespie - Manteca (theme)
TTITLE7=Charlie Parker and Orchestra - Laura
TTITLE8=Charlie Christian - Solo Flight
TTITLE9=Max Roach and Clifford Brown - I get a kick out of you
TTITLE10=Charlie Parker - Star eyes
TTITLE11=Bud Powell - I remember Clifford
EXTD=
EXTT0=
EXTT1=
EXTT2=
EXTT3=
EXTT4=
EXTT5=
EXTT6=
EXTT7=
EXTT8=
EXTT9=
EXTT10=
EXTT11=
PLAYORDER=
